<?xml version="1.0" encoding="UTF-8" standalone="no"?>
<!-- Generator: Adobe Illustrator 19.0.0, SVG Export Plug-In . SVG Version: 6.00 Build 0)  -->

<svg
   xmlns:dc="http://purl.org/dc/elements/1.1/"
   xmlns:cc="http://creativecommons.org/ns#"
   xmlns:rdf="http://www.w3.org/1999/02/22-rdf-syntax-ns#"
   xmlns:svg="http://www.w3.org/2000/svg"
   xmlns="http://www.w3.org/2000/svg"
   xmlns:sodipodi="http://sodipodi.sourceforge.net/DTD/sodipodi-0.dtd"
   xmlns:inkscape="http://www.inkscape.org/namespaces/inkscape"
   version="1.1"
   id="Layer_1"
   x="0px"
   y="0px"
   viewBox="0 0 850.4 200"
   xml:space="preserve"
   inkscape:version="0.48.5 r10040"
   width="100%"
   height="100%"
   sodipodi:docname="pointer.svg"><metadata
     id="metadata51"><rdf:RDF><cc:Work
         rdf:about=""><dc:format>image/svg+xml</dc:format><dc:type
           rdf:resource="http://purl.org/dc/dcmitype/StillImage" /><dc:title></dc:title></cc:Work></rdf:RDF></metadata><defs
     id="defs49" /><sodipodi:namedview
     pagecolor="#ffffff"
     bordercolor="#666666"
     borderopacity="1"
     objecttolerance="10"
     gridtolerance="10"
     guidetolerance="10"
     inkscape:pageopacity="0"
     inkscape:pageshadow="2"
     inkscape:window-width="640"
     inkscape:window-height="480"
     id="namedview47"
     showgrid="false"
     inkscape:zoom="0.35395108"
     inkscape:cx="481.15452"
     inkscape:cy="221.05"
     inkscape:window-x="137"
     inkscape:window-y="9"
     inkscape:window-maximized="0"
     inkscape:current-layer="Layer_1" /><style
     type="text/css"
     id="style3">
	.st0{fill:#003399;}
	.st1{fill:#339900;}
</style><g
     id="g5"
     transform="matrix(3.1640536,0,0,3.1640536,-518.96168,-618.31246)"><path
       class="st0"
       d="m 229.7,203.1 c 0.5,0 1,0.1 1.6,0.2 l 6.4,-5.5 c -2.3,-1.1 -4.9,-1.8 -7.7,-1.9 -10.9,-0.5 -20.2,7.9 -20.8,18.9 -0.3,6 2.1,11.5 6.2,15.3 l 3.3,-7.3 c -1.5,-2.2 -2.3,-4.8 -2.2,-7.7 0.4,-7 6.2,-12.3 13.2,-12 z"
       id="path7"
       inkscape:connector-curvature="0"
       style="fill:#003399" /><path
       class="st0"
       d="m 242.3,200.9 -2.5,8.2 c 1.3,2.1 2,4.5 1.8,7.2 -0.3,6.9 -6.2,12.3 -13.1,12 -0.5,0 -1,-0.1 -1.5,-0.2 l -5.9,5.8 c 2.2,1 4.6,1.6 7.1,1.7 11,0.5 20.2,-7.9 20.8,-18.9 0.2,-6.3 -2.4,-12 -6.7,-15.8 z"
       id="path9"
       inkscape:connector-curvature="0"
       style="fill:#003399" /><path
       class="st0"
       d="m 263.5,199.8 c 0.1,-1 0.4,-1.9 0.9,-2.6 h -11 c 0.5,0.7 0.7,1.6 0.8,2.6 0.1,1 0.2,2.2 0.2,3.6 l 0,24.1 c 0,1.4 -0.1,2.6 -0.1,3.6 -0.1,1 -0.4,1.9 -0.9,2.6 h 11 c -0.5,-0.7 -0.7,-1.6 -0.8,-2.6 -0.1,-1 -0.2,-2.2 -0.1,-3.6 l 0,-24.1 c -0.1,-1.4 -0.1,-2.6 0,-3.6 z"
       id="path11"
       inkscape:connector-curvature="0"
       style="fill:#003399" /><path
       class="st0"
       d="m 309.4,199.8 c 0.1,-1 0.4,-1.9 0.9,-2.6 h -9.9 c 0.5,0.7 0.7,1.6 0.8,2.6 0.1,1 0.1,2.2 0.1,3.6 l 0,20.1 c -0.1,-0.4 -0.5,-1.1 -1.1,-2.1 -0.6,-1.1 -1.4,-2.3 -2.3,-3.7 -0.9,-1.4 -1.9,-2.8 -2.9,-4.4 -1,-1.6 -2,-3 -2.9,-4.4 -0.9,-1.4 -1.7,-2.6 -2.3,-3.6 -0.6,-1 -1,-1.7 -1.1,-2 -0.3,-0.5 -0.7,-1 -1,-1.6 -0.3,-0.6 -0.6,-1.1 -0.9,-1.7 -0.3,-0.6 -0.5,-1.1 -0.6,-1.6 -0.2,-0.5 -0.2,-0.9 -0.2,-1.3 h -14 c 0.5,0.7 0.7,1.6 0.8,2.6 0.1,1 0.1,2.2 0.1,3.6 l 0,24.2 c 0,1.4 -0.1,2.6 -0.1,3.6 -0.1,1 -0.4,1.9 -0.9,2.6 h 9.9 c -0.5,-0.7 -0.7,-1.6 -0.8,-2.6 -0.1,-1 -0.2,-2.2 -0.1,-3.6 l 0,-21.4 c 0.1,0.2 0.3,0.5 0.8,1.2 0.4,0.6 0.9,1.4 1.6,2.4 0.6,1 1.4,2 2.2,3.2 0.8,1.2 1.6,2.4 2.4,3.7 0.8,1.2 1.6,2.5 2.4,3.7 0.8,1.2 1.5,2.3 2.1,3.3 0.6,1 1.2,1.8 1.6,2.5 0.4,0.7 0.6,1.2 0.7,1.4 0.7,1.1 1.2,2.2 1.6,3.4 0.4,1.2 0.5,2.1 0.5,2.8 h 13.3 c -0.5,-0.7 -0.7,-1.6 -0.8,-2.6 -0.1,-1 -0.2,-2.2 -0.2,-3.6 l 0,-24.1 c 0.1,-1.4 0.2,-2.5 0.3,-3.6 z"
       id="path13"
       inkscape:connector-curvature="0"
       style="fill:#003399" /><path
       class="st0"
       d="m 317,204.4 c 0.6,-0.5 1.3,-0.7 2.3,-0.8 1,-0.1 2.2,-0.1 3.5,-0.1 h 6.5 l -0.1,24 c 0,1.4 -0.1,2.6 -0.2,3.6 -0.1,1 -0.4,1.9 -0.8,2.6 h 11 c -0.5,-0.7 -0.7,-1.6 -0.8,-2.6 -0.1,-1 -0.2,-2.2 -0.1,-3.6 l 0,-24 h 6.5 c 1.4,0 2.5,0 3.5,0.1 1,0.1 1.8,0.3 2.4,0.8 l 0,-7.2 H 317 l 0,7.2 z"
       id="path15"
       inkscape:connector-curvature="0"
       style="fill:#003399" /><path
       class="st0"
       d="m 200.8,200.9 c -1,-1.1 -2.2,-2 -3.8,-2.7 -1.6,-0.7 -3.5,-1 -5.9,-1 h -24.3 c 0.5,0.7 0.7,1.6 0.8,2.6 0.1,1 0.2,2.2 0.1,3.6 v 1.1 h 22.4 l 5.2,4.8 -5.2,3.8 h -22.4 l 0,14.4 c 0,1.4 0,2.6 -0.1,3.6 -0.1,1 -0.4,1.9 -0.9,2.6 h 11 c -0.5,-0.7 -0.7,-1.6 -0.8,-2.6 -0.1,-1 -0.2,-2.2 -0.2,-3.6 l 0,-7.1 h 14.4 c 2.3,0 4.3,-0.3 5.9,-1 1.6,-0.7 2.9,-1.6 3.8,-2.6 1,-1.1 1.6,-2.3 2,-3.7 0.4,-1.4 0.6,-2.8 0.6,-4.2 0,-1.4 -0.2,-2.7 -0.6,-4.1 -0.3,-1.5 -1,-2.8 -2,-3.9 z"
       id="path17"
       inkscape:connector-curvature="0"
       style="fill:#003399" /><path
       class="st0"
       d="m 430.4,233.7 c -0.6,-0.3 -1.1,-0.7 -1.6,-1.2 -0.5,-0.5 -1,-1.1 -1.4,-1.7 -0.5,-0.6 -0.9,-1.2 -1.2,-1.7 -0.4,-0.6 -0.7,-1.1 -1,-1.5 l -5.4,-8 c 1.1,-0.2 2.2,-0.5 3.2,-1 1,-0.5 1.9,-1.2 2.7,-2.1 0.8,-0.9 1.4,-1.9 1.9,-3.2 0.5,-1.3 0.7,-2.8 0.7,-4.5 0,-1.4 -0.2,-2.7 -0.6,-4.1 -0.4,-1.4 -1.1,-2.6 -2,-3.7 -0.9,-1.1 -2.2,-2 -3.8,-2.7 -1.6,-0.7 -3.5,-1 -5.9,-1 h -24.3 c 0.5,0.7 0.7,1.6 0.8,2.6 0.1,1 0.2,2.2 0.1,3.6 l 0,1.1 h 22.3 l 5.2,4.8 -5.2,3.8 h -22.3 l 0,14.4 c 0,1.4 -0.1,2.6 -0.2,3.6 -0.1,1 -0.4,1.9 -0.8,2.6 h 11 c -0.5,-0.7 -0.7,-1.6 -0.8,-2.6 -0.1,-1 -0.1,-2.2 -0.1,-3.6 l 0,-7.2 h 8.7 l 5,7.3 c 0.3,0.4 0.6,0.9 0.9,1.5 0.3,0.5 0.6,1.1 0.9,1.7 0.3,0.6 0.5,1.1 0.6,1.6 0.1,0.5 0.1,1 -0.1,1.3 h 12.7 z"
       id="path19"
       inkscape:connector-curvature="0"
       style="fill:#003399" /><path
       class="st0"
       d="m 380.2,203.5 c 1.4,0 2.6,0.1 3.6,0.2 1,0.1 1.9,0.4 2.6,0.8 l 0,-7.3 h -30.7 c 0.5,0.7 0.7,1.6 0.8,2.6 0.1,1 0.2,2.2 0.2,3.6 l -0.1,24 c 0,1.4 0,2.6 -0.1,3.6 -0.1,1 -0.4,1.9 -0.9,2.6 h 30.7 l 0,-7.4 c -0.7,0.5 -1.6,0.7 -2.6,0.8 -1,0.1 -2.2,0.2 -3.6,0.2 h -14.5 l 0,-9.1 h 15.2 l 5,-3 -5,-3.4 h -15.1 l 0,-8.3 h 14.5 z"
       id="path21"
       inkscape:connector-curvature="0"
       style="fill:#003399" /></g><g
     id="g23"
     transform="matrix(3.1640536,0,0,3.1640536,-518.96168,-618.31246)"><path
       class="st1"
       d="m 216.9,234.1 17.2,-14.7 7.3,-21.7 -17.4,15 -7.1,21.4 z m 12.4,-20.9 c 1.5,0.1 2.6,1.3 2.5,2.8 -0.1,1.5 -1.3,2.6 -2.8,2.5 -1.5,-0.1 -2.6,-1.3 -2.5,-2.8 0.1,-1.5 1.3,-2.6 2.8,-2.5 z"
       id="path25"
       inkscape:connector-curvature="0"
       style="fill:#339900" /><rect
       x="265"
       y="238.39999"
       class="st1"
       width="2.4000001"
       height="18.299999"
       id="rect27"
       style="fill:#339900" /><polygon
       class="st1"
       points="255.7,238.4 253.4,238.4 253.4,256.7 255.7,256.7 255.7,248.1 262.9,248.1 264,246.9 262.9,245.8 255.7,245.8 "
       id="polygon29"
       style="fill:#339900" /><polygon
       class="st1"
       points="302,256.7 302,254.6 291.1,254.6 291.1,248.3 299.1,248.3 300.1,247.3 299.1,246.2 291.1,246.2 291.1,240.6 301.6,240.6 301.6,238.4 288.7,238.4 288.7,256.7 "
       id="polygon31"
       style="fill:#339900" /><polygon
       class="st1"
       points="328.5,238.4 326,238.4 319.2,256.7 321.6,256.7 323.6,251.2 328.4,251.2 327.8,249 324.3,249 327.2,240.3 333.1,256.7 335.8,256.7 "
       id="polygon33"
       style="fill:#339900" /><polygon
       class="st1"
       points="366.3,254.6 355.1,254.6 355.2,256.7 366.3,256.7 "
       id="polygon35"
       style="fill:#339900" /><rect
       x="355.20001"
       y="238.39999"
       class="st1"
       width="2.4000001"
       height="14.2"
       id="rect37"
       style="fill:#339900" /><rect
       x="387.39999"
       y="242.10001"
       class="st1"
       width="2.0999999"
       height="14.6"
       id="rect39"
       style="fill:#339900" /><polygon
       class="st1"
       points="395.6,238.4 381.6,238.4 381.6,240.6 395.6,240.5 "
       id="polygon41"
       style="fill:#339900" /><polygon
       class="st1"
       points="417.2,238.4 414.8,238.4 414.8,256.7 417.2,256.7 417.2,248.1 423.9,248.1 425,246.9 423.9,245.8 417.2,245.8 "
       id="polygon43"
       style="fill:#339900" /><rect
       x="426.39999"
       y="238.39999"
       class="st1"
       width="2.4000001"
       height="18.299999"
       id="rect45"
       style="fill:#339900" /></g></svg>