# 3ds Max Wavefront OBJ Exporter v0.97b - (c)2007 guruware
# 创建的文件:02.12.2016 11:09:49


#
# object Object109
#

v  8.6326 -19.5960 25.5383
v  19.9721 -13.3971 33.2786
v  44.8357 -36.6327 27.1541
v  29.7993 -43.7025 17.3039
v  -70.5134 -35.4622 51.7275
v  -59.7179 -77.2286 43.0869
v  -71.9499 -74.1164 63.9253
v  -79.7251 -32.3692 68.1809
v  -82.0227 -20.5351 107.1182
v  -84.3902 -26.3188 90.6326
v  -72.9258 -66.9746 96.0534
v  -67.0900 -59.5342 115.0620
v  31.7197 24.5297 118.8012
v  55.6712 0.4205 124.7732
v  61.1465 3.9688 114.7556
v  40.9850 21.6594 105.0906
v  62.6763 -18.6386 128.3677
v  64.5066 -5.1029 115.7269
v  44.3037 10.1646 69.0209
v  46.8939 14.5829 80.5453
v  73.4589 -3.8090 82.8524
v  74.1107 -10.8574 68.5167
v  50.9268 -59.9495 28.0567
v  36.8894 -69.2716 18.6061
v  5.5524 -55.9136 8.5322
v  18.8903 -47.9922 11.8154
v  25.1167 -75.9280 12.2569
v  10.5555 -85.1208 8.3528
v  -32.8268 -72.3490 15.9656
v  -6.1341 -61.5096 7.9627
v  -1.7133 -92.5911 8.3483
v  -22.5986 -99.0535 14.1147
v  -31.7634 -135.6749 74.2622
v  -60.5581 -99.9803 65.9750
v  -49.1735 -103.1399 40.9270
v  -24.2703 -141.5333 50.2797
v  -57.8697 -79.7331 118.8173
v  -60.7610 -91.4573 97.1849
v  -19.0612 -88.8865 142.6217
v  -39.3600 -64.3816 142.8283
v  -49.2671 -70.9378 135.9593
v  -29.4042 -105.2484 131.2487
v  -64.2698 -54.7755 128.2339
v  -53.0981 -73.6859 131.2157
v  -57.3264 -46.1684 136.7546
v  15.9712 -56.1135 150.7206
v  35.2930 -45.7533 142.2522
v  27.9887 -29.7721 150.0843
v  5.9699 -43.2535 151.4115
v  28.4673 -1.5933 142.5429
v  11.1939 -2.7695 148.1400
v  40.9204 -26.0024 144.8671
v  62.7046 -33.7701 128.4688
v  72.7965 -29.4764 117.6784
v  70.6759 -20.3942 114.9932
v  56.0564 -27.2661 36.2348
v  68.6016 -17.5354 53.8937
v  74.5822 -32.8583 53.6925
v  61.3100 -49.3993 36.5213
v  -35.0573 -31.2430 147.5536
v  -17.1666 -54.3525 149.9120
v  -15.9233 -15.5997 151.4177
v  -80.4090 -16.5928 118.3550
v  -31.8223 -114.6054 121.0444
v  -31.5124 -126.4945 103.5763
v  -62.9913 -95.4515 81.7578
v  -26.1600 -129.3274 87.9781
v  -75.7682 -71.3050 80.1716
v  -86.0040 -30.2610 79.3958
v  -49.9467 -77.5667 30.2007
v  -41.1372 -102.6732 28.8289
v  -64.2345 -37.5703 40.5125
v  -43.5521 -37.1346 27.2533
v  -5.5942 -130.8643 32.0446
v  -15.9363 -137.6187 39.1398
v  -10.5033 -28.6223 18.7911
v  -22.5491 -34.5044 17.4455
v  1.6664 -23.1985 21.6018
v  34.4763 -92.3625 35.0083
v  28.2744 -98.6556 30.8152
v  57.8356 -67.3266 50.0280
v  43.7460 -81.9636 41.1287
v  41.6216 5.6945 57.2509
v  76.4846 -42.0434 71.9528
v  68.7439 -53.0881 59.2751
v  81.4386 -24.0580 69.1223
v  76.4061 -23.2148 103.9794
v  78.6692 -29.3775 104.5397
v  80.8037 -33.0693 88.1000
v  73.8096 -9.1582 98.5681
v  80.6049 -19.1700 85.2290
v  44.9864 0.8380 134.6361
v  52.2710 -19.7525 138.3069
v  25.2881 25.4462 127.6934
v  7.5989 22.8201 138.2775
v  52.7946 -38.7879 135.2338
v  43.1659 -44.2817 138.5741
v  -47.2300 -40.5405 141.4902
v  -7.0058 19.3828 145.4037
v  -31.0658 11.2208 146.8036
v  30.3955 -7.0960 40.7214
v  -50.8688 -17.4187 142.8103
v  -59.8238 -2.4773 139.9734
v  7.4939 -19.0688 27.9783
v  18.3287 -13.1458 35.3741
v  -10.7905 -27.6935 21.5314
v  0.8377 -22.5110 24.2169
v  -42.3686 -35.8269 29.6169
v  -22.3002 -33.3138 20.2456
v  -76.9319 -31.2736 68.7233
v  -68.1301 -34.2289 53.0020
v  -79.1273 -19.9661 105.9279
v  -81.3894 -25.4924 90.1759
v  -70.3223 -9.6762 128.9480
v  -67.9475 -9.5904 126.7863
v  -77.5854 -16.1992 116.6646
v  -7.4487 18.1754 142.5097
v  -30.4379 10.3766 143.8473
v  6.5062 21.4597 135.7006
v  38.4066 20.3507 103.9905
v  29.5535 23.0933 117.0910
v  41.4738 9.4272 69.5585
v  44.0105 13.5956 80.5258
v  28.2883 -7.1250 42.4857
v  39.0149 5.0963 58.2797
v  -57.9162 -2.7119 137.3210
v  -82.9314 -29.2592 79.4391
v  -62.1307 -36.2433 42.2862
v  48.9992 19.3771 91.7323
v  45.8385 18.0772 91.1877
v  23.4081 23.9691 125.5875
v  -65.9989 -15.1446 130.7168
v  -59.6905 -12.0476 136.8579
v  -65.2035 -31.5143 131.2033
v  63.5835 5.9678 106.2805
v  71.5648 -2.0557 97.5872
v  -66.7164 -21.3515 129.5516
v  14.9282 -112.4406 27.2552
v  3.3072 -122.7186 27.9650
v  -51.6294 -47.4886 139.0278
v  -4.4155 -73.0065 147.6719
# 141 vertices

vn -0.0098 0.7686 -0.6397
vn -0.0024 0.7735 -0.6338
vn 0.4250 0.3066 -0.8517
vn 0.3782 0.3014 -0.8753
vn -0.7211 0.4822 -0.4976
vn -0.8302 -0.2301 -0.5078
vn -0.9066 -0.2862 -0.3100
vn -0.7473 0.4601 -0.4793
vn -0.8876 0.4605 -0.0126
vn -0.8766 0.4795 -0.0411
vn -0.8978 -0.3204 0.3021
vn -0.8760 -0.3162 0.3643
vn 0.1793 0.9838 0.0002
vn 0.6487 0.4912 0.5813
vn 0.6280 0.6303 0.4564
vn 0.1645 0.9838 -0.0709
vn 0.7650 0.1902 0.6153
vn 0.7867 0.3502 0.5084
vn 0.1334 0.9172 -0.3754
vn 0.1375 0.9069 -0.3983
vn 0.7717 0.6220 -0.1330
vn 0.7128 0.5921 -0.3760
vn 0.6937 -0.2227 -0.6850
vn 0.6093 -0.2195 -0.7620
vn 0.0596 0.1770 -0.9824
vn 0.2371 0.2589 -0.9364
vn 0.4698 -0.2159 -0.8560
vn 0.2839 -0.2451 -0.9270
vn -0.4624 -0.0059 -0.8866
vn -0.1552 0.1056 -0.9822
vn 0.0148 -0.3061 -0.9519
vn -0.3389 -0.3526 -0.8723
vn -0.8077 -0.5639 0.1722
vn -0.8291 -0.5445 -0.1268
vn -0.7919 -0.4514 -0.4112
vn -0.7191 -0.5872 -0.3716
vn -0.7903 -0.4266 0.4398
vn -0.8086 -0.5009 0.3085
vn -0.2985 -0.2792 0.9127
vn -0.3493 -0.1820 0.9192
vn -0.5300 -0.3056 0.7910
vn -0.5845 -0.4353 0.6847
vn -0.7959 -0.2843 0.5345
vn -0.7014 -0.3945 0.5937
vn -0.6146 -0.1534 0.7738
vn 0.1103 -0.0955 0.9893
vn 0.4566 -0.2220 0.8615
vn 0.2659 0.0108 0.9639
vn -0.0022 -0.0076 1.0000
vn 0.3267 0.3506 0.8777
vn 0.1648 0.2140 0.9628
vn 0.4199 0.0171 0.9074
vn 0.7060 0.0128 0.7081
vn 0.7354 0.3484 0.5812
vn 0.8270 0.2680 0.4942
vn 0.5080 0.3953 -0.7653
vn 0.6288 0.4965 -0.5984
vn 0.8707 -0.0168 -0.4915
vn 0.7711 -0.1483 -0.6192
vn -0.2614 -0.0660 0.9630
vn -0.1466 -0.0886 0.9852
vn -0.0669 0.0507 0.9965
vn -0.8656 0.4507 0.2180
vn -0.7232 -0.5214 0.4529
vn -0.7308 -0.6687 0.1367
vn -0.8228 -0.5574 0.1107
vn -0.7288 -0.6581 0.1893
vn -0.9430 -0.3320 0.0246
vn -0.8952 0.3809 -0.2316
vn -0.7068 -0.1506 -0.6912
vn -0.6340 -0.4000 -0.6618
vn -0.6638 0.4441 -0.6018
vn -0.4303 0.5538 -0.7128
vn -0.1873 -0.5002 -0.8454
vn -0.4282 -0.5257 -0.7351
vn -0.2023 0.6721 -0.7123
vn -0.3346 0.5252 -0.7824
vn -0.0802 0.7194 -0.6900
vn 0.7383 -0.4053 -0.5392
vn 0.6465 -0.3998 -0.6498
vn 0.8026 -0.4578 -0.3823
vn 0.7555 -0.4671 -0.4593
vn 0.1097 0.8498 -0.5156
vn 0.9315 -0.3033 -0.2007
vn 0.8746 -0.3664 -0.3176
vn 0.9600 0.1151 -0.2553
vn 0.9299 0.3013 0.2110
vn 0.9124 0.3538 0.2056
vn 0.9961 0.0191 0.0867
vn 0.9409 0.3013 0.1545
vn 0.9633 0.2280 0.1414
vn 0.4924 0.4489 0.7457
vn 0.5601 0.1437 0.8159
vn 0.1407 0.9527 0.2695
vn 0.0086 0.9303 0.3667
vn 0.5287 -0.1638 0.8328
vn 0.4435 -0.2426 0.8628
vn -0.3498 -0.1026 0.9312
vn -0.1424 0.8260 0.5453
vn -0.3532 0.7536 0.5544
vn 0.0371 0.7638 -0.6444
vn -0.3334 -0.0283 0.9424
vn -0.6389 0.5720 0.5144
vn -0.2776 0.9041 -0.3249
vn -0.2855 0.8992 -0.3317
vn -0.3473 0.8765 -0.3335
vn -0.2985 0.8955 -0.3300
vn -0.2660 0.8937 -0.3613
vn -0.3321 0.8783 -0.3439
vn -0.2884 0.8987 -0.3304
vn -0.2942 0.9143 -0.2785
vn -0.7568 0.5402 0.3679
vn -0.3053 0.9039 -0.2995
vn -0.2996 0.9093 -0.2888
vn -0.3400 0.8853 -0.3173
vn -0.3318 0.8861 -0.3235
vn -0.3436 0.8828 -0.3204
vn -0.2965 0.8853 -0.3582
vn -0.3057 0.8835 -0.3549
vn -0.2949 0.9131 -0.2817
vn -0.3083 0.9043 -0.2952
vn -0.3248 0.8688 -0.3737
vn -0.3384 0.8738 -0.3493
vn -0.3248 0.8927 -0.3125
vn -0.2912 0.9065 -0.3057
vn -0.2713 0.8969 -0.3492
vn 0.2583 0.9452 -0.1997
vn -0.3101 0.8919 -0.3291
vn -0.3280 0.8857 -0.3285
vn -0.6268 -0.1924 0.7550
vn -0.6234 -0.2499 0.7409
vn -0.6920 -0.0870 0.7167
vn 0.6187 0.7719 0.1462
vn 0.8149 0.5789 0.0286
vn -0.6350 -0.0097 0.7724
vn 0.4429 -0.4485 -0.7764
vn 0.1257 -0.4948 -0.8599
vn -0.3870 -0.0743 0.9191
vn -0.0805 -0.1729 0.9816
# 139 vertex normals

vt 0.3122 0.1090 0.0000
vt 0.3122 0.1117 0.0000
vt 0.3089 0.1130 0.0000
vt 0.3092 0.1101 0.0000
vt 0.3103 0.0942 0.0000
vt 0.3080 0.0953 0.0000
vt 0.3069 0.0932 0.0000
vt 0.3091 0.0919 0.0000
vt 0.3052 0.0874 0.0000
vt 0.3071 0.0891 0.0000
vt 0.3047 0.0906 0.0000
vt 0.3027 0.0890 0.0000
vt 0.3136 0.1292 0.0000
vt 0.3099 0.1298 0.0000
vt 0.3097 0.1269 0.0000
vt 0.3130 0.1264 0.0000
vt 0.3088 0.1304 0.0000
vt 0.3094 0.1278 0.0000
vt 0.3122 0.1199 0.0000
vt 0.3123 0.1221 0.0000
vt 0.3086 0.1230 0.0000
vt 0.3086 0.1212 0.0000
vt 0.3076 0.1137 0.0000
vt 0.3078 0.1107 0.0000
vt 0.3096 0.1059 0.0000
vt 0.3094 0.1085 0.0000
vt 0.3079 0.1090 0.0000
vt 0.3080 0.1065 0.0000
vt 0.3092 0.1000 0.0000
vt 0.3097 0.1032 0.0000
vt 0.3080 0.1039 0.0000
vt 0.3074 0.1008 0.0000
vt 0.3018 0.0960 0.0000
vt 0.3050 0.0942 0.0000
vt 0.3061 0.0963 0.0000
vt 0.3029 0.0980 0.0000
vt 0.3011 0.0899 0.0000
vt 0.3030 0.0916 0.0000
vt 0.2955 0.0888 0.0000
vt 0.2977 0.0874 0.0000
vt 0.2990 0.0883 0.0000
vt 0.2972 0.0902 0.0000
vt 0.3013 0.0879 0.0000
vt 0.2998 0.0887 0.0000
vt 0.3000 0.0872 0.0000
vt 0.3111 0.1423 0.0000
vt 0.3099 0.1374 0.0000
vt 0.3109 0.1374 0.0000
vt 0.3126 0.1427 0.0000
vt 0.3116 0.1349 0.0000
vt 0.3127 0.1374 0.0000
vt 0.3102 0.1352 0.0000
vt 0.3082 0.1307 0.0000
vt 0.3074 0.1275 0.0000
vt 0.3085 0.1272 0.0000
vt 0.3086 0.1159 0.0000
vt 0.3085 0.1200 0.0000
vt 0.3075 0.1203 0.0000
vt 0.3075 0.1166 0.0000
vt 0.3173 0.1496 0.0000
vt 0.3146 0.1490 0.0000
vt 0.3153 0.1435 0.0000
vt 0.3039 0.0861 0.0000
vt 0.2984 0.0915 0.0000
vt 0.3000 0.0934 0.0000
vt 0.3043 0.0928 0.0000
vt 0.3011 0.0947 0.0000
vt 0.3061 0.0917 0.0000
vt 0.3084 0.0904 0.0000
vt 0.3088 0.0968 0.0000
vt 0.3069 0.0977 0.0000
vt 0.3110 0.0957 0.0000
vt 0.3116 0.0991 0.0000
vt 0.3044 0.1023 0.0000
vt 0.3037 0.0994 0.0000
vt 0.3122 0.1050 0.0000
vt 0.3122 0.1025 0.0000
vt 0.3123 0.1075 0.0000
vt 0.3053 0.1117 0.0000
vt 0.3052 0.1100 0.0000
vt 0.3055 0.1179 0.0000
vt 0.3054 0.1148 0.0000
vt 0.3122 0.1184 0.0000
vt 0.3060 0.1218 0.0000
vt 0.3057 0.1207 0.0000
vt 0.3077 0.1214 0.0000
vt 0.3075 0.1246 0.0000
vt 0.3067 0.1247 0.0000
vt 0.3063 0.1233 0.0000
vt 0.3086 0.1246 0.0000
vt 0.3078 0.1231 0.0000
vt 0.3104 0.1318 0.0000
vt 0.3094 0.1325 0.0000
vt 0.3141 0.1312 0.0000
vt 0.3156 0.1346 0.0000
vt 0.3088 0.1329 0.0000
vt 0.3094 0.1354 0.0000
vt 0.2946 0.0867 0.0000
vt 0.2963 0.0852 0.0000
vt 0.2974 0.0858 0.0000
vt 0.3169 0.1375 0.0000
vt 0.3193 0.1434 0.0000
vt 0.3121 0.1143 0.0000
vt 0.3204 0.1494 0.0000
vt 0.3218 0.1493 0.0000
vt 0.3138 0.1065 0.0000
vt 0.3140 0.1090 0.0000
vt 0.3135 0.1091 0.0000
vt 0.3133 0.1065 0.0000
vt 0.3133 0.1049 0.0000
vt 0.3137 0.1026 0.0000
vt 0.3142 0.1028 0.0000
vt 0.3137 0.1050 0.0000
vt 0.3143 0.1004 0.0000
vt 0.3174 0.0977 0.0000
vt 0.3177 0.0981 0.0000
vt 0.3148 0.1006 0.0000
vt 0.3231 0.0953 0.0000
vt 0.3263 0.0950 0.0000
vt 0.3262 0.0955 0.0000
vt 0.3232 0.0958 0.0000
vt 0.3326 0.0973 0.0000
vt 0.3323 0.0977 0.0000
vt 0.3299 0.0963 0.0000
vt 0.3302 0.0958 0.0000
vt 0.3355 0.1007 0.0000
vt 0.3350 0.1009 0.0000
vt 0.3339 0.0987 0.0000
vt 0.3343 0.0983 0.0000
vt 0.3317 0.1184 0.0000
vt 0.3342 0.1154 0.0000
vt 0.3346 0.1157 0.0000
vt 0.3320 0.1188 0.0000
vt 0.3297 0.1200 0.0000
vt 0.3295 0.1196 0.0000
vt 0.3221 0.1203 0.0000
vt 0.3247 0.1206 0.0000
vt 0.3247 0.1211 0.0000
vt 0.3220 0.1208 0.0000
vt 0.3167 0.1169 0.0000
vt 0.3183 0.1185 0.0000
vt 0.3180 0.1189 0.0000
vt 0.3163 0.1172 0.0000
vt 0.3137 0.1116 0.0000
vt 0.3142 0.1114 0.0000
vt 0.3156 0.1151 0.0000
vt 0.3152 0.1154 0.0000
vt 0.3361 0.1109 0.0000
vt 0.3367 0.1109 0.0000
vt 0.3285 0.0948 0.0000
vt 0.3283 0.0953 0.0000
vt 0.3211 0.0959 0.0000
vt 0.3209 0.0954 0.0000
vt 0.3194 0.1204 0.0000
vt 0.3196 0.1199 0.0000
vt 0.3265 0.1207 0.0000
vt 0.3265 0.1213 0.0000
vt 0.3367 0.1031 0.0000
vt 0.3361 0.1033 0.0000
vt 0.2993 0.0831 0.0000
vt 0.3017 0.0846 0.0000
vt 0.3011 0.0850 0.0000
vt 0.2996 0.0843 0.0000
vt 0.2984 0.0837 0.0000
vt 0.3022 0.0862 0.0000
vt 0.3124 0.1240 0.0000
vt 0.3099 0.1264 0.0000
vt 0.3092 0.1247 0.0000
vt 0.3017 0.0856 0.0000
vt 0.3052 0.1076 0.0000
vt 0.3051 0.1052 0.0000
vt 0.2989 0.0866 0.0000
vt 0.3131 0.1487 0.0000
vt 0.2937 0.0875 0.0000
# 174 texture coords

g Object109
usemtl Material__0
s 1
f 1/1/1 2/2/2 3/3/3 4/4/4 
f 5/5/5 6/6/6 7/7/7 8/8/8 
f 9/9/9 10/10/10 11/11/11 12/12/12 
f 13/13/13 14/14/14 15/15/15 16/16/16 
f 14/14/14 17/17/17 18/18/18 15/15/15 
f 19/19/19 20/20/20 21/21/21 22/22/22 
f 4/4/4 3/3/3 23/23/23 24/24/24 
f 25/25/25 26/26/26 27/27/27 28/28/28 
f 29/29/29 30/30/30 31/31/31 32/32/32 
f 33/33/33 34/34/34 35/35/35 36/36/36 
f 37/37/37 12/12/12 11/11/11 38/38/38 
f 39/39/39 40/40/40 41/41/41 42/42/42 
f 43/43/43 44/44/44 41/41/41 45/45/45 
f 46/46/46 47/47/47 48/48/48 49/49/49 
f 50/50/50 51/51/51 48/48/48 52/52/52 
f 53/53/53 54/54/54 55/55/55 17/17/17 
f 55/55/55 18/18/18 17/17/17 
f 56/56/56 57/57/57 58/58/58 59/59/59 
f 60/60/60 61/61/61 49/49/49 62/62/62 
f 43/43/43 63/63/63 9/9/9 12/12/12 
f 42/42/42 44/44/44 37/37/37 64/64/64 
f 65/65/65 38/38/38 66/66/66 67/67/67 
f 8/8/8 7/7/7 68/68/68 69/69/69 
f 67/67/67 66/66/66 34/34/34 33/33/33 
f 35/35/35 6/6/6 70/70/70 71/71/71 
f 29/29/29 70/70/70 72/72/72 73/73/73 
f 74/74/74 75/75/75 71/71/71 32/32/32 
f 76/76/76 25/25/25 30/30/30 77/77/77 
f 30/30/30 25/25/25 28/28/28 31/31/31 
f 26/26/26 78/78/78 1/1/1 4/4/4 
f 79/79/79 80/80/80 27/27/27 24/24/24 
f 81/81/81 82/82/82 23/23/23 59/59/59 
f 22/22/22 57/57/57 83/83/83 19/19/19 
f 84/84/84 85/85/85 58/58/58 86/86/86 
f 87/87/87 88/88/88 89/89/89 90/90/90 
f 90/90/90 89/89/89 91/91/91 
f 87/87/87 55/55/55 54/54/54 88/88/88 
f 14/14/14 92/92/92 93/93/93 17/17/17 
f 94/94/94 95/95/95 50/50/50 92/92/92 
f 96/96/96 93/93/93 52/52/52 97/97/97 
f 61/98/61 60/99/60 98/100/98 40/40/40 
f 26/26/26 25/25/25 76/76/76 78/78/78 
f 73/73/73 77/77/77 30/30/30 29/29/29 
f 51/51/51 99/101/99 100/102/100 62/62/62 
f 99/101/99 51/51/51 50/50/50 95/95/95 
f 57/57/57 56/56/56 101/103/101 83/83/83 
f 60/60/60 62/62/62 100/102/100 102/104/102 
f 103/105/103 102/104/102 100/102/100 
f 68/68/68 11/11/11 10/10/10 69/69/69 
f 6/6/6 5/5/5 72/72/72 70/70/70 
f 3/3/3 2/2/2 101/103/101 56/56/56 
f 94/94/94 92/92/92 14/14/14 13/13/13 
f 104/106/104 105/107/105 2/108/2 1/109/1 
f 78/110/78 76/111/76 106/112/106 107/113/107 
f 77/114/77 73/115/73 108/116/108 109/117/109 
f 5/118/5 8/119/8 110/120/110 111/121/110 
f 9/122/9 112/123/111 113/124/111 10/125/10 
f 114/126/112 115/127/113 116/128/114 63/129/63 
f 117/130/115 118/131/116 100/132/100 99/133/99 
f 99/133/99 95/134/95 119/135/117 117/130/115 
f 120/136/118 121/137/119 13/138/13 16/139/16 
f 122/140/120 123/141/121 20/142/20 19/143/19 
f 101/144/101 124/145/122 125/146/123 83/147/83 
f 118/131/116 126/148/124 103/149/103 100/132/100 
f 116/128/114 112/123/111 9/122/9 63/129/63 
f 69/150/69 10/125/10 113/124/111 127/151/125 
f 69/150/69 127/151/125 110/120/110 8/119/8 
f 111/121/110 128/152/126 72/153/72 5/118/5 
f 72/153/72 128/152/126 108/116/108 73/115/73 
f 76/111/76 77/114/77 109/117/109 106/112/106 
f 104/106/104 1/109/1 78/110/78 107/113/107 
f 101/144/101 2/108/2 105/107/105 124/145/122 
f 83/147/83 125/146/123 122/140/120 19/143/19 
f 129/154/127 20/142/20 123/141/121 130/155/128 
f 16/139/16 129/154/127 130/155/128 120/136/118 
f 131/156/129 94/157/94 13/138/13 121/137/119 
f 94/157/94 131/156/129 119/135/117 95/134/95 
f 114/126/112 103/158/103 126/159/124 115/127/113 
f 103/160/103 114/161/112 132/162/130 133/163/131 
f 102/164/102 98/100/98 60/99/60 
f 45/45/45 134/165/132 43/43/43 
f 129/166/127 16/16/16 135/167/133 136/168/134 
f 135/167/133 16/16/16 15/15/15 
f 132/162/130 114/161/112 63/63/63 137/169/135 
f 103/160/103 133/163/131 102/164/102 
f 134/165/132 137/169/135 63/63/63 43/43/43 
f 24/24/24 23/23/23 82/82/82 79/79/79 
f 28/28/28 27/27/27 80/80/80 138/170/136 
f 32/32/32 31/31/31 139/171/137 74/74/74 
f 6/6/6 35/35/35 34/34/34 7/7/7 
f 64/64/64 37/37/37 38/38/38 65/65/65 
f 45/45/45 41/41/41 40/40/40 140/172/138 
f 41/41/41 44/44/44 42/42/42 
f 49/49/49 48/48/48 51/51/51 62/62/62 
f 52/52/52 48/48/48 47/47/47 97/97/97 
f 86/86/86 91/91/91 89/89/89 84/84/84 
f 59/59/59 58/58/58 85/85/85 81/81/81 
f 46/46/46 49/49/49 61/61/61 141/173/139 
f 12/12/12 37/37/37 44/44/44 43/43/43 
f 68/68/68 66/66/66 38/38/38 11/11/11 
f 7/7/7 34/34/34 66/66/66 68/68/68 
f 36/36/36 35/35/35 71/71/71 75/75/75 
f 29/29/29 32/32/32 71/71/71 70/70/70 
f 31/31/31 28/28/28 138/170/136 139/171/137 
f 24/24/24 27/27/27 26/26/26 4/4/4 
f 59/59/59 23/23/23 3/3/3 56/56/56 
f 86/86/86 58/58/58 57/57/57 22/22/22 
f 53/53/53 17/17/17 93/93/93 96/96/96 
f 50/50/50 52/52/52 93/93/93 92/92/92 
f 61/98/61 40/40/40 39/39/39 141/174/139 
f 90/90/90 91/91/91 21/21/21 136/168/134 
f 129/166/127 136/168/134 21/21/21 20/20/20 
f 21/21/21 91/91/91 86/86/86 22/22/22 
f 40/40/40 98/100/98 140/172/138 
# 105 polygons - 9 triangles

