<?xml version="1.0" encoding="utf-8"?>
<!-- Generator: Adobe Illustrator 19.0.0, SVG Export Plug-In . SVG Version: 6.00 Build 0)  -->
<svg version="1.1" id="レイヤー_1" xmlns="http://www.w3.org/2000/svg" xmlns:xlink="http://www.w3.org/1999/xlink" x="0px"
	 y="0px" viewBox="0 0 441.7 196.4" style="enable-background:new 0 0 441.7 196.4;" xml:space="preserve">
<style type="text/css">
	.st0{fill:#666666;}
	.st1{fill:#9769A0;}
</style>
<path class="st0" d="M57,178.6c0,1.8-0.5,3.3-1.6,4.5c-1.1,1.3-2.6,2-4.3,2H32.9v-4.9h18.2c0.7,0,1-0.5,1-1.6c0-1-0.3-1.6-1-1.6
	H37.9c-1.7,0-3.2-0.7-4.3-2c-1.1-1.2-1.6-2.7-1.6-4.5c0-1.8,0.6-3.3,1.7-4.6c1.1-1.3,2.6-1.9,4.3-1.9H56v4.9H37.8
	c-0.7,0-1,0.5-1,1.6c0,1,0.3,1.6,1,1.6h13.2c1.8,0,3.2,0.7,4.3,2C56.5,175.4,57,176.9,57,178.6z"/>
<path class="st0" d="M88.9,185.1H84v-8.1H71.3v8.1h-4.9v-21h4.9v8.1H84v-8.1h4.9V185.1z"/>
<path class="st0" d="M124.1,185.1h-4.9v-6.7h-12.9v-4.9h12.9v-2.9c0-1.1-0.4-1.6-1.1-1.6h-13.9c-0.7,0-1,0.5-1,1.6v14.5h-4.9v-14.5
	c0-1.8,0.5-3.3,1.7-4.6c1.1-1.3,2.5-1.9,4.3-1.9h13.9c1.8,0,3.2,0.6,4.3,1.9c1.1,1.3,1.7,2.8,1.7,4.6V185.1z"/>
<path class="st0" d="M156,185.1h-4.9L138.4,171v14.2h-4.9v-21h4.9l12.6,14.1v-14.1h4.9V185.1z"/>
<path class="st0" d="M188.6,185.1h-16.3c-1.9,0-3.5-0.6-4.9-1.9c-1.3-1.3-2-2.8-2-4.8v-7.7c0-1.9,0.7-3.5,2-4.8
	c1.3-1.3,3-1.9,4.9-1.9h16.3v4.9h-16.3c-1.3,0-2,0.6-2,1.8v7.7c0,1.2,0.7,1.8,2,1.8h11.4v-3.2H177v-4.9h11.6V185.1z"/>
<path class="st0" d="M220.4,185.1h-4.9v-8.1h-12.6v8.1H198v-21h4.9v8.1h12.6v-8.1h4.9V185.1z"/>
<path class="st0" d="M255.7,185.1h-4.9v-6.7h-12.9v-4.9h12.9v-2.9c0-1.1-0.4-1.6-1.1-1.6h-13.9c-0.7,0-1,0.5-1,1.6v14.5h-4.9v-14.5
	c0-1.8,0.6-3.3,1.7-4.6c1.1-1.3,2.5-1.9,4.3-1.9h13.9c1.8,0,3.2,0.6,4.3,1.9c1.1,1.3,1.7,2.8,1.7,4.6V185.1z"/>
<path class="st0" d="M270,185.1h-4.9v-21h4.9V185.1z"/>
<path class="st0" d="M299.6,177.1H281v-4.9h18.5V177.1z"/>
<path class="st0" d="M332.3,185.1h-22.5v-4.9l14.4-11.2h-14.4v-4.9h22.1l-0.1,4.8l-14.1,11.3l14.6,0V185.1z"/>
<path class="st0" d="M346.6,185.1h-4.9v-21h4.9V185.1z"/>
<path class="st0" d="M378.5,185.1h-4.9L361,171v14.2h-4.9v-21h4.9l12.6,14.1v-14.1h4.9V185.1z"/>
<polygon id="XMLID_127_" class="st0" points="410.4,185.1 387.9,185.1 387.9,164.1 410.4,164.1 410.4,169 392.8,169 392.8,172.2 
	409.3,172.2 409.3,177.1 392.8,177.1 392.8,180.2 410.4,180.2 "/>
<rect x="80.9" y="23.4" class="st0" width="11.8" height="112.8"/>
<rect x="90.9" y="70.5" class="st0" width="37.2" height="11.8"/>
<rect x="186.9" y="86.2" class="st0" width="11.8" height="56.9"/>
<rect x="173.9" y="26.5" class="st0" width="24.8" height="11.8"/>
<rect x="213.6" y="26.5" class="st0" width="11.8" height="24.8"/>
<rect x="173.9" y="61.8" class="st0" width="24.8" height="11.8"/>
<rect x="214.8" y="39.5" class="st0" width="74" height="11.8"/>
<rect x="187.8" y="86.1" class="st0" width="101" height="11.8"/>
<rect x="214.1" y="110.8" class="st0" width="75.1" height="11.8"/>
<rect x="173.9" y="131.2" class="st0" width="24.8" height="11.8"/>
<rect x="213.6" y="61.4" class="st0" width="61.3" height="11.8"/>
<rect x="213.6" y="61.4" class="st0" width="11.8" height="61.3"/>
<rect x="238.4" y="61.4" class="st0" width="11.8" height="61.3"/>
<rect x="263.1" y="61.4" class="st0" width="11.8" height="81.1"/>
<rect x="239.5" y="130.8" class="st0" width="26.2" height="11.8"/>
<rect x="33.2" y="130" class="st0" width="119" height="11.8"/>
<rect x="352.6" y="24.4" class="st0" width="11.8" height="69.7"/>
<rect x="326.6" y="80.1" transform="matrix(0.7042 0.71 -0.71 0.7042 179.9872 -202.0438)" class="st0" width="11.8" height="69.7"/>
<polyline class="st0" points="413.4,135.3 364,86.3 355.6,94.6 405.1,143.7 "/>
<path id="XMLID_132_" class="st1" d="M45.5,16.5l-19,0L13.1,29.9l0,19l13.4,13.4l19,0l13.4-13.4l0-19L45.5,16.5z M48.9,51.8H22.8
	v-5.7l16.6-13H22.8v-5.7h25.6l-0.1,5.6L32,46.2l16.9-0.1V51.8z"/>
</svg>
